<?xml version="1.0" encoding="UTF-8"?>
<svg id="Layer_1" data-name="Layer 1" xmlns="http://www.w3.org/2000/svg" viewBox="0 0 99.4 72">
  <g>
    <g>
      <path d="M74.36,64.04c0,4.3-3.49,7.79-7.79,7.79s-7.79-3.49-7.79-7.79,3.49-7.79,7.79-7.79,7.79,3.49,7.79,7.79ZM70.98,64.04c0-2.43-1.97-4.4-4.4-4.4s-4.4,1.97-4.4,4.4,1.97,4.4,4.4,4.4,4.4-1.97,4.4-4.4Z"/>
      <path d="M84.26,71.06c-1.76.94-4.39.98-6.2.22-1.43-.6-2.52-1.67-3.06-3.16l2.95-1.72c.41.88.99,1.54,1.86,1.87.88.3,3.1.39,3.26-.84.28-2.26-4.93-1.35-6.88-4.41-.46-.72-.6-1.56-.57-2.41.05-1.23.58-2.33,1.53-3.12,1.03-.86,2.31-1.22,3.65-1.21,2.31.03,4.33,1.27,5.3,3.39l-2.87,1.68c-.29-.44-.52-.9-.95-1.22-.74-.54-1.75-.65-2.59-.3-.38.16-.61.54-.63.88-.03.4.17.77.53.99.42.26.89.48,1.37.63l1.9.62c2.05.67,3.56,1.75,3.66,4.06.08,1.72-.73,3.24-2.26,4.06Z"/>
    </g>
    <g>
      <path d="M50.92,67.3c-1.07,2.32-3.26,4.13-5.86,4.15l-6.69.05v-6.44s0-8.5,0-8.5l6.63.05c2.84.02,5.2,2.09,6.14,4.69.69,1.75.62,4.24-.21,5.99ZM48.11,65.41c.21-.91.21-1.79.02-2.68-.4-1.57-1.68-2.79-3.34-2.79h-2.98s0,8.26,0,8.26l2.66-.02c1.72-.01,3.18-1.04,3.64-2.77Z"/>
      <path d="M32.45,66.56l.03-9.99,3.45-.02-.06,10.65c0,1.84-1.28,3.37-2.95,4.08-1.8.76-3.89.72-5.66-.05s-2.93-2.57-2.86-4.56l-.02-10.11,3.41.03.03,7.28c0,1.05,0,2.03.06,3.07.05.68.62,1.21,1.25,1.39s1.34.17,1.99,0c.82-.21,1.32-.89,1.32-1.77Z"/>
      <path d="M8.37,71.54c-3.14.8-6.83-.1-8.06-3.43l2.96-1.72c.41.92,1.04,1.6,1.98,1.91.74.18,1.53.2,2.26,0,.48-.15.82-.46.87-.91.06-.48-.14-.89-.59-1.14s-.95-.44-1.46-.6l-1.99-.61c-.69-.21-1.31-.56-1.88-.99-.93-.7-1.43-1.71-1.53-2.87-.13-1.67.6-3.19,2.01-4.09,1-.64,2.13-.88,3.34-.84,2.24.07,4.19,1.34,5.13,3.39l-2.88,1.68c-.31-.56-.58-.96-1.04-1.3-.85-.58-2.93-.68-3.11.58-.15,1.05,1.22,1.48,2.1,1.77l2.2.74c.57.19,1.09.48,1.57.82,1,.71,1.52,1.77,1.57,2.99.04,1.06-.17,2.09-.83,2.93s-1.54,1.4-2.62,1.68Z"/>
      <polygon points="19.18 71.51 15.74 71.49 15.72 59.89 11.91 59.85 11.9 56.57 23.01 56.55 23.02 59.88 19.18 59.89 19.18 71.51"/>
    </g>
  </g>
  <g>
    <polygon points="62.21 15.51 57.05 15.53 57.05 71.66 53.44 71.66 53.43 36.09 53.42 .49 57.02 .51 57.05 12.19 62.19 12.21 62.21 15.51"/>
    <g>
      <path d="M74.93.58v10.22c-.01,1.77-.89,3.31-2.43,4.18-1.79,1.03-4.47,1.08-6.32.19-1.73-.83-2.81-2.5-2.76-4.44l-.02-10.16h3.43s.04,9.88.04,9.88c-.03.89.41,1.59,1.25,1.84.69.21,1.43.21,2.11,0,.85-.26,1.31-1.01,1.24-1.9l.05-9.81h3.42Z"/>
      <polygon points="86.12 9.58 80.79 9.59 80.79 12.19 86.72 12.21 86.75 15.52 77.35 15.52 77.35 .55 86.65 .55 86.62 3.86 80.79 3.88 80.78 6.28 86.1 6.3 86.12 9.58"/>
    </g>
    <g>
      <path d="M65.09,30.65c1.95.65,4.74.35,5.6-1.95l-3.95-.04v-2.98s7.49-.02,7.49-.02c.02.86.03,1.74-.09,2.62-.24,1.74-1.06,3.28-2.41,4.39s-3.09,1.61-4.87,1.62c-2.27.01-4.4-.81-5.96-2.46-1.3-1.36-2.01-3.09-2.09-4.96-.14-3.36,1.84-6.39,4.99-7.6s7.44-.17,9.37,2.92l-2.9,1.66c-.34-.45-.68-.77-1.13-1.06-2.31-1.33-5.45-.7-6.52,1.91-.95,2.29-.08,5.11,2.46,5.96Z"/>
      <g>
        <path d="M95.31,34l-2.8-4.87h-1.6s-.03,4.86-.03,4.86h-3.42s0-14.91,0-14.91l6.73.03c2.99.45,4.94,3.33,4.23,6.26-.39,1.37-1.3,2.45-2.58,3.15l3.16,5.46-3.69.02ZM94.75,25.37c.47-.69.49-1.56.08-2.27-.27-.39-.68-.8-1.2-.8h-2.72s0,3.78,0,3.78h2.35c.6,0,1.13-.17,1.49-.71Z"/>
        <polygon points="84.92 28.08 79.59 28.09 79.62 30.68 85.55 30.71 85.56 33.99 76.15 34.02 76.15 19.05 85.44 19.05 85.43 22.35 79.59 22.39 79.62 24.79 84.88 24.81 84.92 28.08"/>
      </g>
    </g>
    <g>
      <polygon points="71.13 52.51 68.58 52.56 62.86 44.51 62.83 52.53 59.38 52.55 59.38 37.59 61.97 37.6 67.68 45.61 67.72 37.58 71.15 37.59 71.13 52.51"/>
      <path d="M76.59,46.17c.37,2,2.08,3.33,4.07,3.28,1.47.09,2.82-.53,3.6-1.8l2.95,1.7c-.74,1.31-1.9,2.2-3.25,2.84-2.28.96-4.9.86-7.08-.36s-3.42-3.2-3.75-5.56c-.11-.75-.1-1.54-.01-2.28.43-3.87,3.68-6.7,7.55-6.69,2.64-.07,5.11,1.17,6.55,3.46l-2.96,1.72c-.53-.86-1.25-1.38-2.16-1.64-1.06-.28-2.15-.24-3.17.18-2.05.84-2.73,3.05-2.34,5.16Z"/>
    </g>
    <path d="M91.01,2.78l-.16-1.75-.72,1.14-.72-1.19c-.14.62.11,1.18-.14,1.79-.09-.27-.06-1.92-.01-2.06.02-.04.16.02.19.07l.68,1.09.67-1.08s.13-.1.16-.09c.15.02.12,1.79.04,2.09Z"/>
    <path d="M88.18,2.78l-.07-1.91c-.25-.03-.45.03-.68-.12.54-.07.98-.07,1.51,0-.22.13-.43.1-.67.12-.05.65.09,1.24-.09,1.91Z"/>
    <g>
      <path d="M51.78,11.17c-.02,1.53-.78,2.86-2.09,3.61-.64.37-1.38.69-2.16.7l-6.86.02V.59c2.14-.04,4.21-.07,6.32.01,1.18.04,2.21.52,3.05,1.29,1.58,1.54,1.68,4.33-.09,5.86,1.18.79,1.85,1.98,1.83,3.42ZM47.81,5.04c-.03-.71-.52-1.24-1.21-1.25h-2.48s0,2.59,0,2.59h2.54c.7-.01,1.16-.64,1.14-1.35ZM48.33,10.82c-.01-.7-.49-1.33-1.2-1.33h-3.01s0,2.79,0,2.79h2.81c.82,0,1.42-.58,1.39-1.46Z"/>
      <polygon points="48.18 34.02 44.73 34.01 44.74 22.39 40.91 22.36 40.91 19.08 52.01 19.05 51.99 22.35 48.18 22.39 48.18 34.02"/>
    </g>
  </g>
</svg>